<svg xmlns="http://www.w3.org/2000/svg" viewBox="0 0 224.51 13.25"><g id="Layer_2" data-name="Layer 2"><g id="Layer_1-2" data-name="Layer 1"><path d="M4.21,7.85V11a2.5,2.5,0,0,0,.16,1,.76.76,0,0,0,.54.44,4.78,4.78,0,0,0,1.23.13V13q-2.22-.06-3.3-.06c-.6,0-1.35,0-2.26,0L0,13v-.36a3.29,3.29,0,0,0,.87-.15.6.6,0,0,0,.38-.41,3.43,3.43,0,0,0,.1-1V2.16a3.34,3.34,0,0,0-.1-1A.6.6,0,0,0,.87.76,2.92,2.92,0,0,0,0,.61V.25c.61,0,1.52.06,2.74.06l2,0,.83,0a6.1,6.1,0,0,1,3.71,1,3.1,3.1,0,0,1,1.28,2.59A3.84,3.84,0,0,1,10,5.72a3.88,3.88,0,0,1-1.7,1.52,7.1,7.1,0,0,1-3.17.61ZM4.62.74a.68.68,0,0,0-.32.45,3.86,3.86,0,0,0-.09,1V7.49H5a2.13,2.13,0,0,0,2-.94A5,5,0,0,0,7.56,4a5,5,0,0,0-.51-2.57A1.87,1.87,0,0,0,5.33.61,1.42,1.42,0,0,0,4.62.74Z"/><path d="M24.66.76a.63.63,0,0,0-.37.41,3.72,3.72,0,0,0-.1,1v8.93a3.83,3.83,0,0,0,.1,1,.63.63,0,0,0,.37.41,3.3,3.3,0,0,0,.88.15V13q-.88-.06-2.73-.06c-1.22,0-2.16,0-2.83.06v-.36a3.29,3.29,0,0,0,.87-.15.6.6,0,0,0,.38-.41,3.43,3.43,0,0,0,.1-1V6.77H16.56v4.32a3.43,3.43,0,0,0,.1,1,.63.63,0,0,0,.37.41,3.3,3.3,0,0,0,.88.15V13c-.65,0-1.55-.06-2.72-.06S13,13,12.35,13v-.36a3.37,3.37,0,0,0,.87-.15.62.62,0,0,0,.38-.41,3.43,3.43,0,0,0,.1-1V2.16a3.34,3.34,0,0,0-.1-1,.62.62,0,0,0-.38-.41,3,3,0,0,0-.87-.15V.25c.61,0,1.56.06,2.84.06s2.07,0,2.72-.06V.61A2.94,2.94,0,0,0,17,.76a.63.63,0,0,0-.37.41,3.34,3.34,0,0,0-.1,1V6.41h4.77V2.16a3.34,3.34,0,0,0-.1-1,.6.6,0,0,0-.38-.41A2.92,2.92,0,0,0,20,.61V.25c.67,0,1.61.06,2.83.06S25,.29,25.54.25V.61A2.94,2.94,0,0,0,24.66.76Z"/><path d="M37.38.77A5.47,5.47,0,0,1,39.6,3a7.21,7.21,0,0,1,.79,3.5A7.39,7.39,0,0,1,39.58,10a5.8,5.8,0,0,1-2.26,2.37,6.34,6.34,0,0,1-3.3.85,6.9,6.9,0,0,1-3.34-.78,5.39,5.39,0,0,1-2.22-2.24,7.21,7.21,0,0,1-.79-3.5,7.39,7.39,0,0,1,.81-3.51A5.85,5.85,0,0,1,30.73.85,6.4,6.4,0,0,1,34,0,7,7,0,0,1,37.38.77Zm-5.16.36a5.32,5.32,0,0,0-1.16,2.24,12.13,12.13,0,0,0-.41,3.29A10.84,10.84,0,0,0,31.11,10a5.43,5.43,0,0,0,1.24,2.2,2.43,2.43,0,0,0,1.74.77,2.33,2.33,0,0,0,1.75-.8A5.32,5.32,0,0,0,37,9.88a12.2,12.2,0,0,0,.4-3.29A11,11,0,0,0,37,3.29,5.29,5.29,0,0,0,35.7,1.1,2.4,2.4,0,0,0,34,.32,2.33,2.33,0,0,0,32.22,1.13Z"/><path d="M54.4.61a1.87,1.87,0,0,0-.88.31,1.1,1.1,0,0,0-.37.68A6.93,6.93,0,0,0,53.05,3V13l-.44,0-.48,0-7.81-9.9V10a8.39,8.39,0,0,0,.1,1.56,1.1,1.1,0,0,0,.47.72,2.91,2.91,0,0,0,1.17.32V13c-.47,0-1.11-.06-1.94-.06-.66,0-1.18,0-1.57.06v-.36a2,2,0,0,0,.88-.31,1.1,1.1,0,0,0,.37-.68,7,7,0,0,0,.1-1.39V2.16a3.34,3.34,0,0,0-.1-1,.61.61,0,0,0-.37-.41,3.07,3.07,0,0,0-.88-.15V.25c.39,0,.91.06,1.57.06s1.11,0,1.55-.06l7,8.59V3.2a7.38,7.38,0,0,0-.11-1.55,1.06,1.06,0,0,0-.46-.72A2.91,2.91,0,0,0,50.89.61V.25c.46,0,1.11.06,1.94.06.67,0,1.19,0,1.57-.06Z"/><path d="M64.86.31a6.61,6.61,0,0,1,1.51.86.62.62,0,0,0,.36.16c.12,0,.21-.08.28-.26a2.86,2.86,0,0,0,.17-.82h.41c0,.82-.07,2.27-.07,4.36H67.1a8.25,8.25,0,0,0-.42-2,2.87,2.87,0,0,0-.93-1.28A3,3,0,0,0,64.69.7,3.81,3.81,0,0,0,63.4.47a2.82,2.82,0,0,0-2.1.85,5.14,5.14,0,0,0-1.23,2.26,11.09,11.09,0,0,0-.4,3.08q0,6.23,3.46,6.23a2.08,2.08,0,0,0,1.27-.36,1,1,0,0,0,.34-.38,1.44,1.44,0,0,0,.1-.56V9.83a3.61,3.61,0,0,0-.15-1.23.88.88,0,0,0-.51-.54A4.38,4.38,0,0,0,63,7.88V7.52c.74,0,1.77.06,3.08.06,1.06,0,1.87,0,2.41-.06v.36A1.24,1.24,0,0,0,68,8a.61.61,0,0,0-.23.41,5.84,5.84,0,0,0-.06,1V13h-.36a2.3,2.3,0,0,0-.15-.71c-.1-.21-.22-.32-.37-.32a2.42,2.42,0,0,0-1,.38,5.93,5.93,0,0,1-3,.9,6.39,6.39,0,0,1-4.77-1.7,6.59,6.59,0,0,1-1.65-4.78,7.36,7.36,0,0,1,.83-3.55A6,6,0,0,1,59.62.85,6.56,6.56,0,0,1,63,0,4.93,4.93,0,0,1,64.86.31Z"/><path d="M81.25,1.85A5.92,5.92,0,0,1,83,6.48a6.69,6.69,0,0,1-.86,3.43,5.78,5.78,0,0,1-2.46,2.28,8.51,8.51,0,0,1-3.85.81l-1.11,0c-.7,0-1.2,0-1.51,0-1.24,0-2.16,0-2.78.06v-.36a3.47,3.47,0,0,0,.88-.15.61.61,0,0,0,.37-.41,3.43,3.43,0,0,0,.1-1V2.16a3.34,3.34,0,0,0-.1-1,.61.61,0,0,0-.37-.41,3.07,3.07,0,0,0-.88-.15V.25c.51,0,1.23.06,2.18.06h.56l.72,0c1,0,1.69,0,2.11,0A7.51,7.51,0,0,1,81.25,1.85ZM75.14.7a.76.76,0,0,0-.39.45,3.41,3.41,0,0,0-.1,1v9a3.44,3.44,0,0,0,.1,1,.76.76,0,0,0,.39.45,2.31,2.31,0,0,0,.86.12,3.3,3.3,0,0,0,3.09-1.52A9.11,9.11,0,0,0,80,6.55a8.49,8.49,0,0,0-1-4.53A3.4,3.4,0,0,0,76,.58,2.26,2.26,0,0,0,75.14.7Z"/><path d="M96.66.61a1.79,1.79,0,0,0-.87.31,1.06,1.06,0,0,0-.38.68A6.93,6.93,0,0,0,95.31,3V7.76a7.67,7.67,0,0,1-.74,3.81,3.27,3.27,0,0,1-1.4,1.24,5.22,5.22,0,0,1-2.25.44,5.16,5.16,0,0,1-3.24-.9,3.3,3.3,0,0,1-1.12-1.68,11.1,11.1,0,0,1-.29-2.86V2.16a3.34,3.34,0,0,0-.1-1A.61.61,0,0,0,85.8.76a3.07,3.07,0,0,0-.88-.15V.25c.62,0,1.55.06,2.81.06s2.2,0,2.86-.06V.61a3.44,3.44,0,0,0-.94.15.67.67,0,0,0-.41.41,3.34,3.34,0,0,0-.1,1V9a5.54,5.54,0,0,0,.54,2.78,2.11,2.11,0,0,0,1.94.89,2.73,2.73,0,0,0,2.54-1.22A6.68,6.68,0,0,0,94.9,8V3.2a7,7,0,0,0-.13-1.54,1.12,1.12,0,0,0-.49-.73A2.79,2.79,0,0,0,93.15.61V.25c.46,0,1.1.06,1.94.06A15.55,15.55,0,0,0,96.66.25Z"/><path d="M110.36.61a1.87,1.87,0,0,0-.88.31,1.1,1.1,0,0,0-.37.68A6.93,6.93,0,0,0,109,3V13l-.43,0-.49,0-7.81-9.9V10a7.43,7.43,0,0,0,.11,1.56,1.06,1.06,0,0,0,.46.72,2.91,2.91,0,0,0,1.17.32V13c-.46,0-1.11-.06-1.94-.06-.66,0-1.18,0-1.57.06v-.36a2,2,0,0,0,.88-.31,1.1,1.1,0,0,0,.37-.68,7,7,0,0,0,.1-1.39V2.16a3.34,3.34,0,0,0-.1-1,.61.61,0,0,0-.37-.41,3.07,3.07,0,0,0-.88-.15V.25c.39,0,.91.06,1.57.06s1.12,0,1.55-.06l7,8.59V3.2a8.34,8.34,0,0,0-.1-1.55A1.1,1.1,0,0,0,108,.93a2.91,2.91,0,0,0-1.17-.32V.25c.47,0,1.11.06,1.94.06a15.69,15.69,0,0,0,1.57-.06Z"/><path d="M120.82.31a6.61,6.61,0,0,1,1.51.86.62.62,0,0,0,.36.16c.12,0,.21-.08.29-.26a3.35,3.35,0,0,0,.16-.82h.41c0,.82-.07,2.27-.07,4.36h-.41a8.71,8.71,0,0,0-.43-2,2.85,2.85,0,0,0-.92-1.28A3.1,3.1,0,0,0,120.65.7a3.81,3.81,0,0,0-1.29-.23,2.82,2.82,0,0,0-2.1.85A5.14,5.14,0,0,0,116,3.58a11.09,11.09,0,0,0-.4,3.08q0,6.23,3.46,6.23a2.11,2.11,0,0,0,1.28-.36,1.07,1.07,0,0,0,.33-.38,1.44,1.44,0,0,0,.1-.56V9.83a3.61,3.61,0,0,0-.15-1.23.86.86,0,0,0-.51-.54A4.38,4.38,0,0,0,119,7.88V7.52c.74,0,1.77.06,3.08.06,1.07,0,1.87,0,2.41-.06v.36A1.29,1.29,0,0,0,124,8a.61.61,0,0,0-.23.41,5.84,5.84,0,0,0-.06,1V13h-.36a2,2,0,0,0-.15-.71c-.09-.21-.22-.32-.37-.32a2.34,2.34,0,0,0-1,.38,6,6,0,0,1-3,.9,6.39,6.39,0,0,1-4.77-1.7,6.59,6.59,0,0,1-1.65-4.78,7.36,7.36,0,0,1,.83-3.55A6,6,0,0,1,115.58.85,6.56,6.56,0,0,1,118.94,0,4.93,4.93,0,0,1,120.82.31Z"/><path d="M147.74.25V.61a2.19,2.19,0,0,0-.87.7,4.2,4.2,0,0,0-.71,1.44L143,13l-.63,0-.63,0-2.64-8-2.67,8-.63,0-.63,0-4-11.27a2.11,2.11,0,0,0-.52-.86A1,1,0,0,0,130,.61V.25c.72,0,1.61.06,2.68.06s1.74,0,2.21-.06V.61a.65.65,0,0,0-.63.7,3.15,3.15,0,0,0,.16.81l2.63,7.62,1.82-5.37L138,1.58a1.75,1.75,0,0,0-.42-.73A1.13,1.13,0,0,0,137,.61V.25q1,.06,2.58.06c1.17,0,2,0,2.59-.06V.61a2.49,2.49,0,0,0-.94.16.51.51,0,0,0-.29.51,2.7,2.7,0,0,0,.18.84l2.47,7.53,1.71-5.44a7.5,7.5,0,0,0,.41-2.09A1.47,1.47,0,0,0,145.29,1a1.88,1.88,0,0,0-1.16-.39V.25c.81,0,1.56.06,2.23.06A12.93,12.93,0,0,0,147.74.25Z"/><path d="M159.14,13c-.82,0-2.19-.06-4.12-.06-2.62,0-4.58,0-5.87.06v-.36a3.46,3.46,0,0,0,.87-.15.62.62,0,0,0,.38-.41,3.83,3.83,0,0,0,.1-1V2.16a3.72,3.72,0,0,0-.1-1A.62.62,0,0,0,150,.76a3.06,3.06,0,0,0-.87-.15V.25c1.29,0,3.25.06,5.87.06,1.76,0,3,0,3.76-.06-.09,1-.13,1.89-.13,2.67,0,.52,0,.93,0,1.22h-.41a5.15,5.15,0,0,0-1-2.7,2.53,2.53,0,0,0-2-.77h-.74a2.64,2.64,0,0,0-.81.09.52.52,0,0,0-.34.35,2.75,2.75,0,0,0-.09.83V6.41h.58a1.67,1.67,0,0,0,1.44-.7,4.55,4.55,0,0,0,.7-1.68h.41c0,.51-.05,1.07-.05,1.69v.87c0,.61,0,1.46.1,2.55h-.41q-.37-2.37-2.19-2.37h-.58V11.3a2.78,2.78,0,0,0,.09.84.52.52,0,0,0,.34.35,2.64,2.64,0,0,0,.81.09h.88a2.64,2.64,0,0,0,2.06-.87,5.68,5.68,0,0,0,1.11-3h.41c0,.39-.05.9-.05,1.51A23,23,0,0,0,159.14,13Z"/><path d="M172.28,1.85A6,6,0,0,1,174,6.48a6.69,6.69,0,0,1-.85,3.43,5.75,5.75,0,0,1-2.47,2.28,8.44,8.44,0,0,1-3.84.81l-1.12,0c-.69,0-1.2,0-1.51,0-1.24,0-2.16,0-2.77.06v-.36a3.37,3.37,0,0,0,.87-.15.62.62,0,0,0,.38-.41,3.43,3.43,0,0,0,.1-1V2.16a3.34,3.34,0,0,0-.1-1,.62.62,0,0,0-.38-.41,3,3,0,0,0-.87-.15V.25c.5,0,1.23.06,2.18.06h.55l.73,0c1,0,1.68,0,2.1,0A7.56,7.56,0,0,1,172.28,1.85ZM166.17.7a.73.73,0,0,0-.39.45,3.35,3.35,0,0,0-.11,1v9a3.37,3.37,0,0,0,.11,1,.73.73,0,0,0,.39.45,2.25,2.25,0,0,0,.85.12,3.32,3.32,0,0,0,3.1-1.52,9.11,9.11,0,0,0,.92-4.6A8.49,8.49,0,0,0,170.09,2,3.42,3.42,0,0,0,167,.58,2.17,2.17,0,0,0,166.17.7Z"/><path d="M187,1.85a5.92,5.92,0,0,1,1.75,4.63,6.69,6.69,0,0,1-.86,3.43,5.78,5.78,0,0,1-2.46,2.28,8.51,8.51,0,0,1-3.85.81l-1.11,0c-.7,0-1.2,0-1.51,0-1.24,0-2.16,0-2.78.06v-.36a3.47,3.47,0,0,0,.88-.15.65.65,0,0,0,.38-.41,3.93,3.93,0,0,0,.09-1V2.16a3.83,3.83,0,0,0-.09-1A.65.65,0,0,0,177,.76a3.07,3.07,0,0,0-.88-.15V.25c.51,0,1.23.06,2.18.06h.56l.72,0c1,0,1.69,0,2.11,0A7.51,7.51,0,0,1,187,1.85ZM180.87.7a.79.79,0,0,0-.39.45,3.41,3.41,0,0,0-.1,1v9a3.44,3.44,0,0,0,.1,1,.79.79,0,0,0,.39.45,2.31,2.31,0,0,0,.86.12,3.3,3.3,0,0,0,3.09-1.52,9.11,9.11,0,0,0,.92-4.6A8.5,8.5,0,0,0,184.8,2,3.42,3.42,0,0,0,181.71.58,2.26,2.26,0,0,0,180.87.7Z"/><path d="M196.43.61a2.94,2.94,0,0,0-.88.15.63.63,0,0,0-.37.41,3.34,3.34,0,0,0-.1,1v8.93a3.43,3.43,0,0,0,.1,1,.63.63,0,0,0,.37.41,3.3,3.3,0,0,0,.88.15V13c-.65,0-1.55-.06-2.72-.06s-2.23,0-2.84.06v-.36a3.29,3.29,0,0,0,.87-.15.6.6,0,0,0,.38-.41,3.43,3.43,0,0,0,.1-1V2.16a3.34,3.34,0,0,0-.1-1,.6.6,0,0,0-.38-.41,2.92,2.92,0,0,0-.87-.15V.25c.61,0,1.56.06,2.84.06s2.07,0,2.72-.06Z"/><path d="M210.4.61a1.79,1.79,0,0,0-.87.31,1.11,1.11,0,0,0-.38.68,6.93,6.93,0,0,0-.1,1.39V13l-.43,0-.49,0-7.81-9.9V10a8.19,8.19,0,0,0,.11,1.56,1.07,1.07,0,0,0,.47.72,2.91,2.91,0,0,0,1.17.32V13q-.7-.06-1.95-.06-1,0-1.56.06v-.36a2,2,0,0,0,.87-.31,1.15,1.15,0,0,0,.38-.68,7.85,7.85,0,0,0,.1-1.39V2.16a3.72,3.72,0,0,0-.1-1,.65.65,0,0,0-.38-.41,3.06,3.06,0,0,0-.87-.15V.25q.57.06,1.56.06c.6,0,1.12,0,1.55-.06l7,8.59V3.2a8.14,8.14,0,0,0-.11-1.55,1.07,1.07,0,0,0-.47-.72,2.91,2.91,0,0,0-1.17-.32V.25c.47,0,1.12.06,1.94.06A15.55,15.55,0,0,0,210.4.25Z"/><path d="M220.87.31a6.35,6.35,0,0,1,1.5.86.64.64,0,0,0,.36.16c.12,0,.22-.08.29-.26a2.93,2.93,0,0,0,.16-.82h.42c0,.82-.08,2.27-.08,4.36h-.41a9.35,9.35,0,0,0-.42-2,3,3,0,0,0-.93-1.28A3.06,3.06,0,0,0,220.7.7a3.87,3.87,0,0,0-1.3-.23,2.82,2.82,0,0,0-2.1.85,5.24,5.24,0,0,0-1.23,2.26,11.48,11.48,0,0,0-.4,3.08c0,4.15,1.16,6.23,3.46,6.23a2.11,2.11,0,0,0,1.28-.36,1,1,0,0,0,.33-.38,1.28,1.28,0,0,0,.1-.56V9.83a4,4,0,0,0-.14-1.23.9.9,0,0,0-.52-.54A4.31,4.31,0,0,0,219,7.88V7.52c.75,0,1.77.06,3.08.06,1.07,0,1.87,0,2.41-.06v.36A1.29,1.29,0,0,0,224,8a.6.6,0,0,0-.22.41,4.77,4.77,0,0,0-.07,1V13h-.36a2,2,0,0,0-.15-.71c-.09-.21-.21-.32-.37-.32a2.39,2.39,0,0,0-1,.38,6,6,0,0,1-2.95.9,6.36,6.36,0,0,1-4.77-1.7,6.56,6.56,0,0,1-1.66-4.78,7.25,7.25,0,0,1,.84-3.55A6,6,0,0,1,215.62.85,6.59,6.59,0,0,1,219,0,5,5,0,0,1,220.87.31Z"/></g></g></svg>