<svg height="512" viewBox="0 0 60 60" width="512" xmlns="http://www.w3.org/2000/svg"><g id="Page-1" fill="none" fill-rule="evenodd"><g id="025---Mail-Chat" fill="#c184a5" fill-rule="nonzero"><path id="Shape" d="m48 0h-36c-6.62421881.00771476-11.99228524 5.37578119-12 12v26c.00716485 6.624447 5.37555305 11.9928352 12 12h28.144l8.394 9.363c.374357.4050142.9004764.6358255 1.452.637.3182472-.0007412.631798-.0768158.915-.222.7901054-.3910001 1.2242632-1.2593156 1.063-2.126l-1.286-8.008c5.4000807-1.2988586 9.2345761-6.0905376 9.318-11.644v-26c-.0077148-6.62421881-5.3757812-11.99228524-12-12zm0 2c2.2697051.0003524 4.4710888.77660569 6.239 2.2l-20.845 20.082-.62.6c-1.5523599 1.4821646-3.9956401 1.4821646-5.548 0l-21.465-20.682c1.76783173-1.42353682 3.96926741-2.19980841 6.239-2.2zm-46 36v-26c-.00042569-2.34083417.82421731-4.60692056 2.329-6.4l20.14 19.4-20.141 19.4c-1.50419625-1.7933491-2.32844906-4.0593362-2.328-6.4zm48.191 9.7c-1.0055438.2507368-1.6513988 1.2299503-1.486 2.253l1.309 8.055-8.382-9.348c-.3799859-.4210265-.9208565-.6609288-1.488-.66h-28.144c-2.270117.000278-4.47202029-.7760341-6.24-2.2l20.156-19.417c2.2872837 2.177524 5.8807163 2.177524 8.168 0l20.1 19.362c-1.1703176.939576-2.5338374 1.608872-3.993 1.96zm7.809-9.7c-.0162759 2.3323884-.8604544 4.5831766-2.382 6.351l-20.085-19.351 20.138-19.4c1.5049333 1.79299246 2.329597 4.05913565 2.329 6.4z"/><path id="Shape" d="m15 6h14c.5522847 0 1-.44771525 1-1s-.4477153-1-1-1h-14c-.5522847 0-1 .44771525-1 1s.4477153 1 1 1z"/><circle id="Oval" cx="11" cy="5" r="1"/></g></g></svg>